<?xml version="1.0" encoding="UTF-8" standalone="no"?>
<!-- Created with Inkscape (http://www.inkscape.org/) -->

<svg
   xmlns:dc="http://purl.org/dc/elements/1.1/"
   xmlns:cc="http://creativecommons.org/ns#"
   xmlns:rdf="http://www.w3.org/1999/02/22-rdf-syntax-ns#"
   xmlns:svg="http://www.w3.org/2000/svg"
   xmlns="http://www.w3.org/2000/svg"
   xmlns:sodipodi="http://sodipodi.sourceforge.net/DTD/sodipodi-0.dtd"
   xmlns:inkscape="http://www.inkscape.org/namespaces/inkscape"
   width="1000"
   height="1000"
   viewBox="0 0 264.58333 264.58334"
   version="1.1"
   id="svg909"
   sodipodi:docname="Key.svg"
   inkscape:export-filename="/home/anonymous/Documents/Schule/GFS Mathe/People svg/Key3.png"
   inkscape:export-xdpi="96"
   inkscape:export-ydpi="96"
   inkscape:version="0.92.3 (2405546, 2018-03-11)">
  <defs
     id="defs903" />
  <sodipodi:namedview
     id="base"
     pagecolor="#ffffff"
     bordercolor="#666666"
     borderopacity="1.0"
     inkscape:pageopacity="0.0"
     inkscape:pageshadow="2"
     inkscape:zoom="0.24748737"
     inkscape:cx="647.2323"
     inkscape:cy="1524.1302"
     inkscape:document-units="mm"
     inkscape:current-layer="g942"
     showgrid="false"
     units="px"
     inkscape:window-width="2560"
     inkscape:window-height="1440"
     inkscape:window-x="0"
     inkscape:window-y="0"
     inkscape:window-maximized="0" />
  <metadata
     id="metadata906">
    <rdf:RDF>
      <cc:Work
         rdf:about="">
        <dc:format>image/svg+xml</dc:format>
        <dc:type
           rdf:resource="http://purl.org/dc/dcmitype/StillImage" />
        <dc:title></dc:title>
      </cc:Work>
    </rdf:RDF>
  </metadata>
  <g
     inkscape:label="Layer 1"
     inkscape:groupmode="layer"
     id="layer1"
     transform="translate(0,-32.416658)">
    <g
       id="g942"
       transform="matrix(-0.06557174,-5.2804803,5.2804803,-0.06557174,-635.87122,1668.1001)">
      <path
         inkscape:connector-curvature="0"
         id="path850-3"
         d="m 281.77472,150.79882 a 9.027028,9.027028 0 0 0 -9.02684,9.02683 9.027028,9.027028 0 0 0 9.02684,9.02736 9.027028,9.027028 0 0 0 9.02684,-9.02736 9.027028,9.027028 0 0 0 -9.02684,-9.02683 z m 0,9.82213 a 3.1805073,3.1805073 0 0 1 3.18069,3.18069 3.1805073,3.1805073 0 0 1 -3.18069,3.18017 3.1805073,3.1805073 0 0 1 -3.18069,-3.18017 3.1805073,3.1805073 0 0 1 3.18069,-3.18069 z"
         style="opacity:1;fill:#f4a100;fill-opacity:1;stroke:none;stroke-width:4.03283596;stroke-linecap:round;stroke-linejoin:round;stroke-miterlimit:4;stroke-dasharray:none;stroke-dashoffset:0;stroke-opacity:1;paint-order:markers stroke fill" />
      <path
         sodipodi:nodetypes="cccccc"
         inkscape:connector-curvature="0"
         id="rect870-6"
         transform="matrix(0.26458333,0,0,0.26458333,0,11.249992)"
         d="m 1045.6843,522.82268 -0.049,15.60701 39.9511,0 V 522.375 l -35.9609,-0.3125 z"
         style="opacity:1;fill:#f4a100;fill-opacity:1;stroke:none;stroke-width:9.74632359;stroke-linecap:round;stroke-linejoin:round;stroke-miterlimit:4;stroke-dasharray:none;stroke-dashoffset:0;stroke-opacity:1;paint-order:markers stroke fill" />
      <path
         inkscape:connector-curvature="0"
         id="path850"
         d="m 283.20553,150.7902 a 9.0270279,9.0270279 0 0 0 -9.02684,9.02683 9.0270279,9.0270279 0 0 0 9.02684,9.02736 9.0270279,9.0270279 0 0 0 9.02684,-9.02736 9.0270279,9.0270279 0 0 0 -9.02684,-9.02683 z m 0,9.82213 a 3.1805073,3.1805073 0 0 1 3.18069,3.18069 3.1805073,3.1805073 0 0 1 -3.18069,3.18017 3.1805073,3.1805073 0 0 1 -3.18069,-3.18017 3.1805073,3.1805073 0 0 1 3.18069,-3.18069 z"
         style="opacity:1;fill:#ffbf3e;fill-opacity:1;stroke:none;stroke-width:4.03283596;stroke-linecap:round;stroke-linejoin:round;stroke-miterlimit:4;stroke-dasharray:none;stroke-dashoffset:0;stroke-opacity:1;paint-order:markers stroke fill" />
      <path
         sodipodi:nodetypes="ccccccccccccccc"
         inkscape:connector-curvature="0"
         id="rect889-7"
         d="m 278.09096,132.75621 0,1.38626 0,1.72651 2.28342,2.02329 -2.28342,2.31444 0,1.47827 1.50784,1.0606 -1.50784,1.47596 0,5.07924 v 2.99979 l 7.28589,0 v -19.54436 l -2.87924,-5.00072 -0.82117,-0.006 z"
         style="opacity:1;fill:#f4a100;fill-opacity:1;stroke:none;stroke-width:3.05690527;stroke-linecap:round;stroke-linejoin:round;stroke-miterlimit:4;stroke-dasharray:none;stroke-dashoffset:0;stroke-opacity:1;paint-order:markers stroke fill" />
      <rect
         ry="0"
         y="149.38702"
         x="277.73312"
         height="5.1449385"
         width="10.57051"
         id="rect870"
         style="opacity:1;fill:#ffbf3e;fill-opacity:1;stroke:none;stroke-width:2.79999995;stroke-linecap:round;stroke-linejoin:round;stroke-miterlimit:4;stroke-dasharray:none;stroke-dashoffset:0;stroke-opacity:1;paint-order:markers stroke fill" />
      <path
         sodipodi:nodetypes="cccccccccccccc"
         inkscape:connector-curvature="0"
         id="rect889"
         d="m 279.38083,132.25346 v 1.42652 1.77665 l 2.28342,2.08205 -2.28342,2.38165 v 1.52119 l 1.50784,1.09141 -1.50784,1.51883 v 5.22673 0.65606 l 7.28589,0.0661 v -17.74724 l -4.16911,-4.49792 z"
         style="opacity:1;fill:#ffbf3e;fill-opacity:1;stroke:none;stroke-width:3.10097575;stroke-linecap:round;stroke-linejoin:round;stroke-miterlimit:4;stroke-dasharray:none;stroke-dashoffset:0;stroke-opacity:1;paint-order:markers stroke fill" />
      <g
         id="g1565">
        <path
           style="opacity:1;fill:#f4a100;fill-opacity:1;stroke:none;stroke-width:4.03283596;stroke-linecap:round;stroke-linejoin:round;stroke-miterlimit:4;stroke-dasharray:none;stroke-dashoffset:0;stroke-opacity:1;paint-order:markers stroke fill"
           d="m 285.23516,89.291923 a 9.0270283,9.0270283 0 0 0 -9.02684,9.02683 9.0270283,9.0270283 0 0 0 9.02684,9.027357 9.0270283,9.0270283 0 0 0 9.02684,-9.027357 9.0270283,9.0270283 0 0 0 -9.02684,-9.02683 z m 0,9.82213 a 3.1805073,3.1805073 0 0 1 3.18069,3.180687 3.1805073,3.1805073 0 0 1 -3.18069,3.18017 3.1805073,3.1805073 0 0 1 -3.18069,-3.18017 3.1805073,3.1805073 0 0 1 3.18069,-3.180687 z"
           id="path850-3-9"
           inkscape:connector-curvature="0" />
        <path
           style="opacity:1;fill:#f4a100;fill-opacity:1;stroke:none;stroke-width:2.57871485;stroke-linecap:round;stroke-linejoin:round;stroke-miterlimit:4;stroke-dasharray:none;stroke-dashoffset:0;stroke-opacity:1;paint-order:markers stroke fill"
           d="m 279.56008,87.940893 v 3.07372 h 10.57039 v -4.24781 l -9.51465,-0.0827 z"
           id="rect870-6-3"
           inkscape:connector-curvature="0"
           sodipodi:nodetypes="cccccc" />
        <path
           style="opacity:1;fill:#ffbf3e;fill-opacity:1;stroke:none;stroke-width:4.03283596;stroke-linecap:round;stroke-linejoin:round;stroke-miterlimit:4;stroke-dasharray:none;stroke-dashoffset:0;stroke-opacity:1;paint-order:markers stroke fill"
           d="m 286.10808,88.095303 a 9.0270278,9.0270278 0 0 0 -9.02684,9.02683 9.0270278,9.0270278 0 0 0 9.02684,9.027357 9.0270278,9.0270278 0 0 0 9.02684,-9.027357 9.0270278,9.0270278 0 0 0 -9.02684,-9.02683 z m 0,9.82213 a 3.1805073,3.1805073 0 0 1 3.18069,3.180687 3.1805073,3.1805073 0 0 1 -3.18069,3.18017 3.1805073,3.1805073 0 0 1 -3.18069,-3.18017 3.1805073,3.1805073 0 0 1 3.18069,-3.180687 z"
           id="path850-6"
           inkscape:connector-curvature="0" />
        <path
           style="opacity:1;fill:#f4a100;fill-opacity:1;stroke:none;stroke-width:3.05690527;stroke-linecap:round;stroke-linejoin:round;stroke-miterlimit:4;stroke-dasharray:none;stroke-dashoffset:0;stroke-opacity:1;paint-order:markers stroke fill"
           d="m 281.60172,70.531073 v 1.38626 1.72651 l 2.28342,2.02329 -2.28342,2.31444 v 1.47827 l 1.50784,1.0606 -1.50784,1.47596 v 5.07924 2.99979 h 7.28589 v -19.54436 l -4.16911,-4.37098 z"
           id="rect889-7-0"
           inkscape:connector-curvature="0"
           sodipodi:nodetypes="cccccccccccccc" />
        <rect
           style="opacity:1;fill:#ffbf3e;fill-opacity:1;stroke:none;stroke-width:2.79999995;stroke-linecap:round;stroke-linejoin:round;stroke-miterlimit:4;stroke-dasharray:none;stroke-dashoffset:0;stroke-opacity:1;paint-order:markers stroke fill"
           id="rect870-62"
           width="10.57051"
           height="5.1449385"
           x="280.63571"
           y="86.692116"
           ry="0" />
        <path
           style="opacity:1;fill:#ffbf3e;fill-opacity:1;stroke:none;stroke-width:3.10097575;stroke-linecap:round;stroke-linejoin:round;stroke-miterlimit:4;stroke-dasharray:none;stroke-dashoffset:0;stroke-opacity:1;paint-order:markers stroke fill"
           d="m 282.28338,69.558563 v 1.42652 1.77665 l 2.28342,2.08205 -2.28342,2.38164 v 1.5212 l 1.50784,1.09141 -1.50784,1.51883 v 5.22673 0.65606 l 7.28589,0.0661 v -17.74724 l -4.16911,-4.49792 z"
           id="rect889-6"
           inkscape:connector-curvature="0"
           sodipodi:nodetypes="cccccccccccccc" />
      </g>
    </g>
  </g>
</svg>
